<mxfile host="65bd71144e">
    <diagram id="F8h7Tey3ktNMzSNdxR6P" name="Page-1">
        <mxGraphModel dx="1031" dy="774" grid="1" gridSize="10" guides="1" tooltips="1" connect="1" arrows="1" fold="1" page="1" pageScale="1" pageWidth="850" pageHeight="1100" math="0" shadow="0">
            <root>
                <mxCell id="0"/>
                <mxCell id="1" parent="0"/>
                <mxCell id="10" value="Usuário" style="shape=umlLifeline;perimeter=lifelinePerimeter;whiteSpace=wrap;html=1;container=1;collapsible=0;recursiveResize=0;outlineConnect=0;" vertex="1" parent="1">
                    <mxGeometry x="100" y="130" width="100" height="390" as="geometry"/>
                </mxCell>
                <mxCell id="20" value="Sistema" style="shape=umlLifeline;perimeter=lifelinePerimeter;whiteSpace=wrap;html=1;container=1;collapsible=0;recursiveResize=0;outlineConnect=0;" vertex="1" parent="1">
                    <mxGeometry x="270" y="130" width="100" height="410" as="geometry"/>
                </mxCell>
                <mxCell id="22" value="" style="html=1;points=[];perimeter=orthogonalPerimeter;fillColor=#808080;" vertex="1" parent="20">
                    <mxGeometry x="45" y="60" width="10" height="50" as="geometry"/>
                </mxCell>
                <mxCell id="48" value="" style="html=1;points=[];perimeter=orthogonalPerimeter;fillColor=#808080;" vertex="1" parent="20">
                    <mxGeometry x="45" y="140" width="10" height="240" as="geometry"/>
                </mxCell>
                <mxCell id="21" value="Seleciona Cromo" style="edgeStyle=none;html=1;endArrow=open;endFill=0;" edge="1" parent="1" source="10" target="20">
                    <mxGeometry x="-0.0881" y="8" relative="1" as="geometry">
                        <mxPoint x="155" y="213.4000000000001" as="sourcePoint"/>
                        <Array as="points">
                            <mxPoint x="190" y="200"/>
                            <mxPoint x="270" y="200"/>
                        </Array>
                        <mxPoint as="offset"/>
                    </mxGeometry>
                </mxCell>
                <mxCell id="24" value="Usuário" style="shape=umlLifeline;perimeter=lifelinePerimeter;whiteSpace=wrap;html=1;container=1;collapsible=0;recursiveResize=0;outlineConnect=0;" vertex="1" parent="1">
                    <mxGeometry x="120" y="920" width="100" height="410" as="geometry"/>
                </mxCell>
                <mxCell id="26" value="Sistema" style="shape=umlLifeline;perimeter=lifelinePerimeter;whiteSpace=wrap;html=1;container=1;collapsible=0;recursiveResize=0;outlineConnect=0;" vertex="1" parent="1">
                    <mxGeometry x="330" y="920" width="100" height="460" as="geometry"/>
                </mxCell>
                <mxCell id="27" value="" style="html=1;points=[];perimeter=orthogonalPerimeter;fillColor=#808080;" vertex="1" parent="26">
                    <mxGeometry x="45" y="60" width="10" height="110" as="geometry"/>
                </mxCell>
                <mxCell id="39" style="edgeStyle=none;rounded=0;html=1;dashed=1;endArrow=open;endFill=0;" edge="1" parent="26" source="32" target="26">
                    <mxGeometry relative="1" as="geometry"/>
                </mxCell>
                <mxCell id="32" value="" style="html=1;points=[];perimeter=orthogonalPerimeter;fillColor=#808080;" vertex="1" parent="26">
                    <mxGeometry x="45" y="210" width="10" height="150" as="geometry"/>
                </mxCell>
                <mxCell id="31" value="Apresenta formulário de cadastro" style="edgeStyle=none;html=1;dashed=1;endArrow=open;endFill=0;" edge="1" parent="1" source="27" target="24">
                    <mxGeometry x="0.0219" y="-20" relative="1" as="geometry">
                        <Array as="points">
                            <mxPoint x="270" y="1080"/>
                        </Array>
                        <mxPoint as="offset"/>
                    </mxGeometry>
                </mxCell>
                <mxCell id="33" value="Envia Formulário&lt;br&gt;" style="edgeStyle=none;html=1;entryX=-0.1;entryY=0.182;entryDx=0;entryDy=0;entryPerimeter=0;rounded=0;endArrow=open;endFill=0;" edge="1" parent="1" source="24" target="32">
                    <mxGeometry x="-0.0452" y="10" relative="1" as="geometry">
                        <mxPoint x="175" y="1167.3" as="sourcePoint"/>
                        <mxPoint as="offset"/>
                    </mxGeometry>
                </mxCell>
                <mxCell id="34" value="Banco de dados" style="shape=umlLifeline;perimeter=lifelinePerimeter;whiteSpace=wrap;html=1;container=1;collapsible=0;recursiveResize=0;outlineConnect=0;" vertex="1" parent="1">
                    <mxGeometry x="510" y="920" width="100" height="460" as="geometry"/>
                </mxCell>
                <mxCell id="36" value="" style="html=1;points=[];perimeter=orthogonalPerimeter;fillColor=#808080;" vertex="1" parent="34">
                    <mxGeometry x="45" y="210" width="10" height="110" as="geometry"/>
                </mxCell>
                <mxCell id="40" value="" style="html=1;points=[];perimeter=orthogonalPerimeter;fillColor=#808080;" vertex="1" parent="34">
                    <mxGeometry x="45" y="350" width="10" height="30" as="geometry"/>
                </mxCell>
                <mxCell id="37" value="Verifica se email ja esta em uso" style="edgeStyle=none;rounded=0;html=1;" edge="1" parent="1" source="32" target="34">
                    <mxGeometry x="-0.0258" y="10" relative="1" as="geometry">
                        <Array as="points">
                            <mxPoint x="480" y="1150"/>
                        </Array>
                        <mxPoint as="offset"/>
                    </mxGeometry>
                </mxCell>
                <mxCell id="38" value="email ok" style="edgeStyle=none;rounded=0;html=1;endArrow=open;endFill=0;dashed=1;" edge="1" parent="1" source="36" target="26">
                    <mxGeometry x="-0.0313" y="-15" relative="1" as="geometry">
                        <Array as="points">
                            <mxPoint x="470" y="1220"/>
                        </Array>
                        <mxPoint as="offset"/>
                    </mxGeometry>
                </mxCell>
                <mxCell id="41" value="Persiste dados" style="edgeStyle=none;rounded=0;html=1;endArrow=classic;endFill=1;" edge="1" parent="1" source="32" target="40">
                    <mxGeometry y="10" relative="1" as="geometry">
                        <mxPoint as="offset"/>
                    </mxGeometry>
                </mxCell>
                <mxCell id="42" value="Confirma conta criada&lt;br&gt;" style="edgeStyle=none;rounded=0;html=1;endArrow=open;endFill=0;startArrow=none;startFill=0;dashed=1;" edge="1" parent="1" source="32" target="24">
                    <mxGeometry x="0.0219" y="-10" relative="1" as="geometry">
                        <Array as="points">
                            <mxPoint x="260" y="1280"/>
                        </Array>
                        <mxPoint as="offset"/>
                    </mxGeometry>
                </mxCell>
                <mxCell id="49" value="Adiciona cromo" style="edgeStyle=none;rounded=0;html=1;startArrow=none;startFill=0;endArrow=classicThin;endFill=1;" edge="1" parent="1" source="10" target="20">
                    <mxGeometry x="0.0334" y="10" relative="1" as="geometry">
                        <mxPoint x="155" y="300" as="sourcePoint"/>
                        <Array as="points">
                            <mxPoint x="240" y="280"/>
                        </Array>
                        <mxPoint as="offset"/>
                    </mxGeometry>
                </mxCell>
                <mxCell id="50" value="Banco de dados" style="shape=umlLifeline;perimeter=lifelinePerimeter;whiteSpace=wrap;html=1;container=1;collapsible=0;recursiveResize=0;outlineConnect=0;" vertex="1" parent="1">
                    <mxGeometry x="550" y="130" width="100" height="460" as="geometry"/>
                </mxCell>
                <mxCell id="53" value="" style="html=1;points=[];perimeter=orthogonalPerimeter;fillColor=#808080;" vertex="1" parent="50">
                    <mxGeometry x="45" y="160" width="10" height="80" as="geometry"/>
                </mxCell>
                <mxCell id="57" value="" style="html=1;points=[];perimeter=orthogonalPerimeter;fillColor=#808080;" vertex="1" parent="50">
                    <mxGeometry x="45" y="280" width="10" height="40" as="geometry"/>
                </mxCell>
                <mxCell id="54" value="Verifica se o cromo já&lt;br&gt;não está presente no álbum do usuário" style="edgeStyle=none;rounded=0;html=1;startArrow=none;startFill=0;endArrow=classicThin;endFill=1;" edge="1" parent="1" source="48" target="50">
                    <mxGeometry x="0.0298" y="25" relative="1" as="geometry">
                        <Array as="points">
                            <mxPoint x="480" y="300"/>
                        </Array>
                        <mxPoint as="offset"/>
                    </mxGeometry>
                </mxCell>
                <mxCell id="56" value="Não está presente" style="edgeStyle=none;rounded=0;html=1;startArrow=none;startFill=0;endArrow=classicThin;endFill=1;dashed=1;" edge="1" parent="1" source="53" target="20">
                    <mxGeometry x="-0.02" y="-10" relative="1" as="geometry">
                        <Array as="points">
                            <mxPoint x="450" y="350"/>
                        </Array>
                        <mxPoint as="offset"/>
                    </mxGeometry>
                </mxCell>
                <mxCell id="58" value="Persiste figurinha no album do usuário" style="edgeStyle=none;rounded=0;html=1;startArrow=none;startFill=0;endArrow=classicThin;endFill=1;entryX=0;entryY=0.375;entryDx=0;entryDy=0;entryPerimeter=0;" edge="1" parent="1" source="20" target="57">
                    <mxGeometry x="-0.0142" y="16" relative="1" as="geometry">
                        <mxPoint x="335" y="310" as="sourcePoint"/>
                        <mxPoint x="609.5" y="310" as="targetPoint"/>
                        <Array as="points"/>
                        <mxPoint as="offset"/>
                    </mxGeometry>
                </mxCell>
                <mxCell id="59" value="Confirma figurinha adicionada" style="rounded=0;html=1;startArrow=none;startFill=0;endArrow=classicThin;endFill=1;dashed=1;" edge="1" parent="1">
                    <mxGeometry x="0.0588" y="-10" relative="1" as="geometry">
                        <mxPoint x="320" y="460" as="sourcePoint"/>
                        <mxPoint x="150" y="460" as="targetPoint"/>
                        <Array as="points">
                            <mxPoint x="180.5" y="460"/>
                        </Array>
                        <mxPoint as="offset"/>
                    </mxGeometry>
                </mxCell>
            </root>
        </mxGraphModel>
    </diagram>
</mxfile>